HIERARCHY
ROOT hip
{
	OFFSET 0.000000 0.000000 0.000000 
	CHANNELS 6 Xposition Yposition Zposition Xrotation Zrotation Yrotation
	JOINT abdomen
	{
		OFFSET 0.000000 3.402643 0.000000 
		CHANNELS 3 Xrotation Zrotation Yrotation
		JOINT chest
		{
			OFFSET 0.000000 8.438565 -0.680529 
			CHANNELS 3 Xrotation Zrotation Yrotation
			JOINT neck
			{
				OFFSET 0.000000 10.207942 -0.272212 
				CHANNELS 3 Xrotation Zrotation Yrotation
				JOINT head
				{
					OFFSET 0.000000 3.130431 0.000000 
					CHANNELS 3 Xrotation Zrotation Yrotation
					End Site
					{
						OFFSET 0.000000 3.130435 0.000000 
					}
				}
			}
			JOINT lCollar
			{
				OFFSET 3.470700 6.669187 -0.816635 
				CHANNELS 3 Yrotation Zrotation Xrotation
				JOINT lShldr
				{
					OFFSET 3.198488 0.000000 0.000000 
					CHANNELS 3 Zrotation Yrotation Xrotation
					JOINT lForeArm
					{
						OFFSET 10.139888 0.000000 0.000000 
						CHANNELS 3 Yrotation Zrotation Xrotation
						JOINT lHand
						{
							OFFSET 8.370511 0.000000 0.000000 
							CHANNELS 3 Zrotation Yrotation Xrotation
							End Site
							{
								OFFSET 4.083176 0.000000 0.000000 
							}
						}
					}
				}
			}
			JOINT rCollar
			{
				OFFSET -3.470700 6.669187 -0.816635 
				CHANNELS 3 Yrotation Zrotation Xrotation
				JOINT rShldr
				{
					OFFSET -3.198488 0.000000 0.000000 
					CHANNELS 3 Zrotation Yrotation Xrotation
					JOINT rForeArm
					{
						OFFSET -10.139888 0.000000 0.000000 
						CHANNELS 3 Yrotation Zrotation Xrotation
						JOINT rHand
						{
							OFFSET -8.370511 0.000000 0.000000 
							CHANNELS 3 Zrotation Yrotation Xrotation
							End Site
							{
								OFFSET -4.083176 0.000000 0.000000 
							}
						}
					}
				}
			}
		}
	}
	JOINT lThigh
	{
		OFFSET 5.308129 -1.633274 1.361059 
		CHANNELS 3 Xrotation Zrotation Yrotation
		JOINT lShin
		{
			OFFSET -2.041588 -20.007561 0.000000 
			CHANNELS 3 Xrotation Zrotation Yrotation
			JOINT lFoot
			{
				OFFSET 0.000000 -19.190928 -1.224953 
				CHANNELS 3 Xrotation Yrotation Zrotation
				End Site
				{
					OFFSET 0.000000 -2.449906 4.627600 
				}
			}
		}
	}
	JOINT rThigh
	{
		OFFSET -5.308129 -1.633274 1.361059 
		CHANNELS 3 Xrotation Zrotation Yrotation
		JOINT rShin
		{
			OFFSET 2.041588 -20.007561 0.000000 
			CHANNELS 3 Xrotation Zrotation Yrotation
			JOINT rFoot
			{
				OFFSET 0.000000 -19.190928 -1.224953 
				CHANNELS 3 Xrotation Yrotation Zrotation
				End Site
				{
					OFFSET 0.000000 -2.449906 4.627600 
				}
			}
		}
	}
}
MOTION
Frames: 20
Frame Time: 0.033333
-0.427960 41.169624 -40.200413 3.594126 0.828446 100.745529 26.258364 0.216970 -1.909357 -20.839844 0.000000 0.000000 34.213943 6.971508 8.302025 8.584577 -3.811294 0.287245 -4.754609 -0.109183 -0.002653 -77.305641 2.943355 5.637827 -1.320424 -4.721420 14.398782 -4.424384 -7.083857 -17.205761 4.754609 0.109183 -0.002672 88.673645 -29.248461 -21.467155 51.054665 2.919925 20.973253 -2.328033 -5.936883 27.534845 -23.529009 8.259819 -2.641464 46.518742 2.476238 -10.135203 -25.541899 -3.172896 -4.250738 -6.136024 -34.477238 -35.442043 46.841625 22.843985 6.566126 -22.537086 30.200043 -4.455212 
-0.334752 41.073277 -40.308296 2.745160 1.560708 101.744987 26.031351 1.026191 -1.219689 -20.839844 0.000000 0.000000 34.643421 7.601419 8.068803 8.584577 -3.811294 0.287245 -4.754609 -0.109183 -0.002653 -77.896111 2.577997 5.499383 -0.855004 -3.971873 13.322422 -3.983788 -7.314167 -17.757824 4.754609 0.109183 -0.002672 89.967323 -28.413908 -20.577461 50.558277 3.350015 20.196999 -3.385316 -6.167412 25.851496 -22.391281 9.003181 -4.070771 47.341114 4.680908 -9.720479 -27.453325 -1.041004 -1.003162 -5.518548 -33.367508 -34.724781 47.053951 22.540199 6.045752 -23.632210 28.822828 -3.690519 
-0.265799 40.859257 -40.497391 1.485701 2.421062 102.182274 25.582136 2.297571 -0.399940 -20.839844 0.000000 0.000000 35.098820 7.678404 7.982281 8.584577 -3.811294 0.287245 -4.754609 -0.109183 -0.002653 -78.808258 2.465678 5.386506 -0.367620 -2.938442 12.131557 -4.085764 -7.543040 -18.506205 4.754609 0.109183 -0.002672 91.070801 -27.546059 -19.706612 50.094147 3.693496 19.311970 -4.330872 -7.227045 24.148096 -20.566687 10.611373 -5.051433 47.387264 6.732985 -8.914930 -29.000038 2.411928 -0.621778 -5.667385 -31.839531 -33.175404 47.788948 22.004475 5.824817 -24.737322 27.257532 -3.160994 
-0.215079 40.551510 -40.801720 0.195708 3.642557 102.415375 25.536182 3.953432 0.258581 -20.839844 0.000000 0.000000 35.116215 7.458635 7.810747 8.584577 -3.811294 0.287245 -4.754609 -0.109183 -0.002653 -80.322205 2.106713 6.115273 0.340678 -1.337377 11.736287 -4.414954 -7.923736 -19.293066 4.754609 0.109183 -0.002672 92.053696 -26.756088 -19.051224 49.897999 3.835774 18.433931 -4.585522 -8.968628 22.797550 -18.402702 12.711782 -5.178736 46.875660 7.994561 -8.864865 -30.403847 4.902486 -3.032863 -6.213572 -30.090538 -30.788946 48.983288 20.820518 5.800631 -26.097786 24.922297 -2.338658 
-0.142802 40.255726 -41.187531 -0.892351 5.204451 102.878365 26.024820 5.607706 0.255420 -20.839844 0.000000 0.000000 34.846493 7.446026 7.748566 8.584577 -3.811294 0.287245 -4.754609 -0.109183 -0.002653 -81.385040 1.332582 7.349578 0.950102 -0.308653 12.355400 -4.515994 -8.270802 -19.557877 4.754609 0.109183 -0.002672 93.164085 -26.162313 -18.722782 49.998524 3.740711 18.093367 -3.488041 -11.333899 22.525728 -16.696636 14.666117 -4.658692 46.643303 8.499408 -9.752777 -30.890873 5.308332 -6.172073 -6.650528 -28.037271 -27.809620 50.032711 19.032467 5.493843 -27.450428 21.618523 -1.233467 
-0.033031 40.104183 -41.549625 -1.297334 6.472964 103.868324 26.502592 6.449171 -0.818168 -20.839844 0.000000 0.000000 34.409267 7.952397 7.801168 8.584577 -3.811294 0.287245 -4.754609 -0.109183 -0.002653 -81.364914 0.414941 8.471849 0.410603 -0.336357 13.872959 -4.251741 -8.750154 -18.861025 4.754609 0.109183 -0.002672 94.219841 -26.089758 -18.553984 50.544006 3.878110 18.907780 -0.973373 -13.748778 23.589991 -15.921439 15.746773 -3.977264 46.883663 8.365007 -10.787357 -30.411728 3.900555 -7.650428 -6.769127 -26.341139 -25.197594 50.404114 17.131903 4.773100 -27.941076 18.184788 -0.630163 
0.063309 40.153141 -41.829521 -0.973579 6.766610 104.973969 26.263821 5.670727 -2.407429 -20.839844 0.000000 0.000000 33.700699 9.440792 7.597908 8.584577 -3.811294 0.287245 -4.754609 -0.109183 -0.002653 -80.623932 -0.813641 9.773223 0.019854 -0.216160 16.254402 -4.002516 -9.166646 -17.428139 4.754609 0.109183 -0.002672 95.178482 -26.818207 -18.811447 52.109459 4.222324 20.975939 2.915852 -14.383142 26.121891 -15.865244 16.119667 -3.029539 46.754677 7.407319 -11.456245 -29.821354 1.777995 -7.342903 -7.120000 -25.562309 -23.420769 50.127247 15.597741 3.917887 -27.470192 15.543494 -0.891776 
0.075280 40.337475 -42.103489 -0.874047 6.073517 104.839676 25.049002 3.708894 -3.093431 -20.839844 0.000000 0.000000 32.801384 11.507820 6.940931 8.584577 -3.811294 0.287245 -4.754609 -0.109183 -0.002653 -79.346748 -1.908924 10.952719 0.602142 0.273303 19.415565 -2.932146 -8.976600 -15.210625 4.754609 0.109183 -0.002672 95.750191 -28.262276 -19.850931 55.370670 4.385654 23.681435 8.302001 -11.256308 30.042791 -16.222631 17.082369 -1.139887 46.213512 5.577716 -11.630743 -29.456551 -0.517742 -7.303294 -8.418287 -25.406240 -22.389952 49.697041 14.806668 3.523319 -26.075867 14.428598 -1.459741 
-0.068443 40.516613 -42.427322 -1.802977 4.714472 102.303444 23.428894 2.245234 -2.142077 -20.839844 0.000000 0.000000 31.203959 12.644490 6.339582 8.584577 -3.811294 0.287245 -4.754609 -0.109183 -0.002653 -77.632927 -2.371563 11.074883 0.306746 -0.281730 22.354671 -0.293687 -8.231763 -12.158504 4.754609 0.109183 -0.002672 94.320930 -30.184212 -20.728235 61.963257 5.329364 25.194103 14.099399 -5.893429 32.198933 -16.844437 19.051142 1.313408 45.940239 3.542540 -11.073711 -29.584774 -1.856327 -7.937696 -11.845705 -25.610310 -21.406487 50.072193 14.602910 4.444262 -19.977566 14.960541 0.244163 
-0.406819 40.538479 -42.758629 -3.255573 2.700719 97.522392 22.469578 1.862195 -0.391869 -20.839844 0.000000 0.000000 27.607426 12.271388 6.733732 8.584577 -3.811294 0.287245 -4.754609 -0.109183 -0.002653 -75.987656 -2.826202 10.418210 -1.069326 -1.547892 23.583351 2.258358 -7.938436 -9.891644 4.754609 0.109183 -0.002672 88.847321 -32.533451 -19.697748 74.338997 9.809192 21.324869 17.491102 -1.967904 27.742064 -17.968618 20.605186 2.790329 46.495144 2.575876 -9.532518 -30.139364 -0.540592 -9.026985 -18.758064 -25.951071 -19.470068 52.523090 14.373884 6.773085 -7.431756 17.006744 0.610022 
-0.915531 40.333836 -43.036705 -4.423830 0.038946 91.608315 23.030848 0.972075 0.381508 -20.839844 0.000000 0.000000 21.053818 11.889613 9.005127 8.584577 -3.811294 0.287245 -4.754609 -0.109183 -0.002653 -73.634842 -3.005884 9.484774 -3.317982 -1.785102 23.452106 3.647949 -8.872528 -9.510036 4.754609 0.109183 -0.002672 79.118752 -33.830894 -16.292662 93.487282 16.151581 9.526595 15.915205 -0.197325 16.287655 -19.909195 20.670652 2.519759 47.887115 2.818450 -7.169045 -30.797176 3.518113 -10.629801 -29.595814 -26.214859 -16.166319 57.946301 13.661729 10.144767 8.161239 19.008797 -5.110652 
-1.583009 40.024509 -43.258625 -4.234519 -3.048313 86.445976 25.222481 -1.388884 -0.977064 -20.839844 0.000000 0.000000 11.182140 13.213102 12.662262 8.584577 -3.811294 0.287245 -4.754609 -0.109183 -0.002653 -69.361115 -2.272845 8.143689 -6.802982 -1.208557 23.456387 4.850903 -10.512104 -9.795356 4.754609 0.109183 -0.002672 68.186859 -32.640530 -13.576624 116.938538 16.504429 -7.025674 9.692309 1.750305 1.765581 -22.895197 20.415174 2.023201 49.636669 2.994395 -4.831737 -30.951843 7.282654 -12.221989 -43.794292 -25.884705 -11.494422 66.086113 11.758280 13.255365 18.606276 18.491264 -11.401093 
-2.443898 39.755817 -43.473602 -3.862007 -6.401567 83.038155 28.550606 -3.627143 -3.667582 -20.839844 0.000000 0.000000 -1.272791 15.640738 15.249005 8.584577 -3.811294 0.287245 -4.754609 -0.109183 -0.002653 -64.224052 -0.564940 6.766718 -11.687185 -0.540982 24.532564 6.511947 -11.669058 -9.185927 4.754609 0.109183 -0.002672 60.971577 -31.995956 -16.908867 137.005966 9.254827 -16.483875 1.367852 7.453624 -12.366829 -26.949610 21.735275 2.895015 51.289967 1.919298 -3.785506 -30.460779 7.669847 -12.993074 -59.654770 -24.236687 -5.961012 75.302917 8.232243 13.725065 18.546188 15.448031 -10.921749 
-3.345450 39.473057 -43.732449 -4.031880 -8.796876 81.670998 31.807432 -3.935196 -6.000744 -20.839844 0.000000 0.000000 -12.977616 16.953594 15.660297 8.584577 -3.811294 0.287245 -4.754609 -0.109183 -0.002653 -60.688812 0.924521 6.536513 -15.081768 1.275476 27.065941 8.017460 -12.005860 -7.608816 4.754609 0.109183 -0.002672 61.955669 -33.044460 -27.275240 148.451248 -0.560694 -12.734033 -8.142830 15.412983 -24.900696 -31.380402 24.994295 4.974075 53.080944 -0.267666 -4.203794 -29.952265 4.580539 -12.872074 -74.184784 -22.313110 -1.167088 83.409912 4.209496 11.666485 13.303727 11.212453 -6.411725 
-3.785110 39.026779 -43.978897 -4.599000 -10.523413 81.562683 33.834675 -2.461005 -7.398570 -20.839844 0.000000 0.000000 -19.661911 16.517113 15.416556 8.584577 -3.811294 0.287245 -4.754609 -0.109183 -0.002653 -59.947941 0.567262 8.658933 -13.225352 4.968209 31.026524 9.000570 -11.942373 -7.447916 4.754609 0.109183 -0.002672 66.402351 -31.111149 -36.759720 152.182007 -7.961853 -2.605490 -18.453959 18.122623 -31.488863 -34.940014 28.445898 6.816616 55.787914 -2.182076 -5.323092 -30.808460 0.989559 -12.025499 -84.997475 -23.339193 1.980697 89.553978 1.982882 10.445201 9.639576 9.086429 -4.856506 
-3.472980 38.566963 -44.068195 -5.192760 -10.387816 81.503906 34.517673 -0.832097 -7.989634 -20.839844 0.000000 0.000000 -19.808504 15.719301 15.965748 8.584577 -3.811294 0.287245 -4.754609 -0.109183 -0.002653 -61.193386 -1.777793 11.787146 -6.543997 6.492511 34.486229 9.709424 -11.175619 -7.876282 4.754609 0.109183 -0.002672 70.249847 -29.498104 -39.924664 151.285126 -11.248865 4.299478 -23.929157 16.372026 -28.742058 -35.452549 29.895687 7.264472 58.418533 -2.259322 -5.959414 -33.177929 0.178611 -11.849643 -90.137833 -27.116970 4.168357 92.977852 1.328204 11.229974 8.828063 10.080381 -5.926846 
-2.595014 38.302948 -43.840023 -5.821076 -7.471481 80.505493 34.338192 -0.104741 -7.720490 -20.839844 0.000000 0.000000 -14.585035 14.996783 17.807955 8.584577 -3.811294 0.287245 -4.754609 -0.109183 -0.002653 -63.466690 -2.734943 13.280090 -2.139846 2.650356 36.411663 9.443477 -9.600975 -6.301133 4.754609 0.109183 -0.002672 75.705551 -31.568365 -38.584240 146.367905 -10.674535 5.161421 -21.223200 14.222520 -20.131435 -30.894186 29.448248 7.014835 59.336208 -0.571691 -5.708927 -35.620831 2.621425 -13.051166 -87.801270 -30.439127 5.010803 92.698883 0.538066 12.163529 9.901777 11.630306 -5.526546 
-1.396686 38.177456 -43.238209 -6.763051 -2.249876 78.372002 33.926556 0.139084 -6.820042 -20.839844 0.000000 0.000000 -6.173995 13.853523 20.688046 8.584577 -3.811294 0.287245 -4.754609 -0.109183 -0.002653 -66.343246 -0.126737 12.720088 -1.803795 -2.657433 37.382591 7.708379 -7.757975 -3.637719 4.754609 0.109183 -0.002672 80.889755 -34.559326 -35.233295 136.000641 -7.542714 2.269645 -14.786801 9.326353 -10.814270 -21.532364 28.465107 7.321061 58.303108 1.519616 -4.886890 -36.972641 6.475423 -14.982679 -78.514313 -32.509384 3.878111 88.498886 -0.379723 12.430626 12.035022 12.226701 -3.445631 
0.037476 37.941036 -42.236523 -8.171738 3.731366 75.636948 33.665176 0.468659 -6.003819 -20.839844 0.000000 0.000000 3.227313 12.582220 23.746952 8.584577 -3.811294 0.287245 -4.754609 -0.109183 -0.002653 -68.731857 5.556117 10.476521 -4.927936 -6.999258 38.121651 5.570343 -5.780670 -0.815276 4.754609 0.109183 -0.002672 84.395447 -36.436619 -31.846161 119.740044 -3.058081 -1.337658 -9.716879 1.605683 -5.639204 -10.164740 27.728718 8.332084 56.696163 3.413232 -4.045479 -37.200794 10.032847 -16.434370 -65.246773 -35.338013 0.359464 81.272308 0.333258 13.194812 14.743360 13.308187 -3.335532 
1.558560 37.469246 -40.903561 -10.048802 9.070082 72.981468 33.228504 0.920976 -5.725745 -20.839844 0.000000 0.000000 12.212723 11.993992 26.130894 8.584577 -3.811294 0.287245 -4.754609 -0.109183 -0.002653 -70.584885 10.825303 8.128680 -6.822841 -10.640559 38.858463 3.739989 -3.797568 1.477839 4.754609 0.109183 -0.002672 87.506989 -35.808544 -29.203175 98.171791 -1.536437 -3.640842 -5.656827 -6.683559 -5.354647 0.438933 27.731834 9.725323 55.717281 5.206419 -3.710175 -36.729664 12.633950 -17.816839 -49.926620 -39.184662 -6.428578 71.995964 3.711838 15.430955 17.432680 17.385563 -7.096848 
